/* XPM */
static char *e81c5ae39a16458fd2f3c665e54e8b890aeLlUwfbv2H6XEz[] = {
/* columns rows colors chars-per-pixel */
"64 64 250 2 ",
"   c #011C00",
".  c #031700",
"X  c #012500",
"o  c #032C00",
"O  c #0B2D00",
"+  c #092500",
"@  c #122D00",
"#  c #033200",
"$  c #0C3400",
"%  c #0D3B00",
"&  c #033A00",
"*  c #133400",
"=  c #1B3600",
"-  c #143B00",
";  c #1C3C00",
":  c #213C01",
">  c #164200",
",  c #1B4300",
"<  c #1D4A00",
"1  c #174A00",
"2  c #224400",
"3  c #234B00",
"4  c #2A4D01",
"5  c #294A06",
"6  c #324F09",
"7  c #2B5301",
"8  c #2C5B01",
"9  c #275200",
"0  c #335500",
"q  c #335B01",
"w  c #385809",
"e  c #385915",
"r  c #3C6402",
"t  c #396803",
"y  c #35630F",
"u  c #395921",
"i  c #456A08",
"p  c #427400",
"a  c #4A7903",
"s  c #466A16",
"d  c #536E19",
"f  c #4C7313",
"g  c #4A751A",
"h  c #547B18",
"j  c #547C00",
"k  c #4D7526",
"l  c #577725",
"z  c #5E7B37",
"x  c #4B682B",
"c  c #607B25",
"v  c #495B27",
"b  c #4B6A4A",
"n  c #4F8503",
"m  c #598A07",
"M  c #5A861B",
"N  c #528A15",
"B  c #628A15",
"V  c #659817",
"C  c #67930F",
"Z  c #6DB409",
"A  c #77B60C",
"S  c #6CA71A",
"D  c #73AC1B",
"F  c #75AA19",
"G  c #6CB71A",
"H  c #75B514",
"J  c #7BBC14",
"K  c #75B51B",
"L  c #7AB41D",
"P  c #76BB1C",
"I  c #7CBD1D",
"U  c #77B814",
"Y  c #5B8628",
"T  c #5B8335",
"R  c #638827",
"E  c #6A9628",
"W  c #73992A",
"Q  c #668737",
"!  c #6D9536",
"~  c #759C39",
"^  c #728B38",
"/  c #6EA723",
"(  c #74AC24",
")  c #7AAC23",
"_  c #75AB2A",
"`  c #7AAC2C",
"'  c #74A427",
"]  c #75B524",
"[  c #7BB523",
"{  c #75BC22",
"}  c #7DBE24",
"|  c #7DB42B",
" . c #75BA2B",
".. c #7CBD2A",
"X. c #76B42D",
"o. c #76AC34",
"O. c #7BAD33",
"+. c #7AA43B",
"@. c #7DAC3C",
"#. c #77A434",
"$. c #7CB333",
"%. c #7DBB32",
"&. c #7DB23A",
"*. c #7CBB38",
"=. c #76B734",
"-. c #69B328",
";. c #79C20D",
":. c #7CC215",
">. c #7CC11B",
",. c #76C216",
"<. c #7CC123",
"1. c #7DC32C",
"2. c #76C226",
"3. c #7CC233",
"4. c #6E9542",
"5. c #759A46",
"6. c #7C9D54",
"7. c #6C8B47",
"8. c #7CA443",
"9. c #7BAB43",
"0. c #79A449",
"q. c #7DB546",
"w. c #7EA65F",
"e. c #5F8145",
"r. c #82BD1C",
"t. c #82B819",
"y. c #81AD2A",
"u. c #81B624",
"i. c #81BD24",
"p. c #83B32C",
"a. c #82BC2B",
"s. c #8ABC2D",
"d. c #88B927",
"f. c #83AC3D",
"g. c #85AC37",
"h. c #82B434",
"j. c #84BB33",
"k. c #8ABD34",
"l. c #84B53B",
"z. c #84BC3A",
"x. c #8ABC3B",
"c. c #8AB536",
"v. c #91BC39",
"b. c #90BE28",
"n. c #81C215",
"m. c #81C31C",
"M. c #86C81B",
"N. c #83C406",
"B. c #82C324",
"V. c #83C32B",
"C. c #8CC52B",
"Z. c #8AC92C",
"A. c #87C827",
"S. c #84C333",
"D. c #8BC333",
"F. c #84C23B",
"G. c #8CC23B",
"H. c #8ACA37",
"J. c #92C33C",
"K. c #94CB3C",
"L. c #94C737",
"P. c #94D235",
"I. c #91C72E",
"U. c #839F5B",
"Y. c #82AC44",
"T. c #82A44C",
"R. c #83AC4B",
"E. c #8CAC48",
"W. c #84B442",
"Q. c #8BB442",
"!. c #8BBC44",
"~. c #86B44A",
"^. c #8AB44D",
"/. c #88BC48",
"(. c #93BD48",
"). c #85AC52",
"_. c #87A957",
"`. c #8BB353",
"'. c #8BB855",
"]. c #94BA59",
"[. c #8CB461",
"{. c #96BB67",
"}. c #9ABD73",
"|. c #82A060",
" X c #A0BF7B",
".X c #8DC244",
"XX c #8DC14A",
"oX c #85C641",
"OX c #93C44B",
"+X c #97C746",
"@X c #9AC354",
"#X c #98C658",
"$X c #98CF4E",
"%X c #A4CA55",
"&X c #A5D75C",
"*X c #A0D04A",
"=X c #9DC769",
"-X c #9ECA76",
";X c #A4CA67",
":X c #A7D867",
">X c #A8CA77",
",X c #B2CD7D",
"<X c #ABD477",
"1X c #B5D779",
"2X c #B5E275",
"3X c #B1E75B",
"4X c #9EBB8C",
"5X c #A8C988",
"6X c #B2CD87",
"7X c #ADD185",
"8X c #B3D485",
"9X c #B7DA89",
"0X c #B8D795",
"qX c #B1D196",
"wX c #BBE485",
"eX c #BDE495",
"rX c #BAD5B3",
"tX c #C2E789",
"yX c #C8F68A",
"uX c #CBEA95",
"iX c #C7E997",
"pX c #CBF896",
"aX c #D4FE9B",
"sX c #D8FE98",
"dX c #D4F396",
"fX c #E0FF9F",
"gX c #C0DCA4",
"hX c #C6E8A5",
"jX c #CDFAA5",
"kX c #DCFEA5",
"lX c #D6FDAB",
"zX c #DCFFAC",
"xX c #D5FAA6",
"cX c #DBFEB3",
"vX c #D8FAB5",
"bX c #CEEDB1",
"nX c #E3FFAB",
"mX c #E6FFA8",
"MX c #E3FFB3",
"NX c #E9FFB3",
"BX c #E2FFBC",
"VX c #ECFFBD",
"CX c #F1FFBC",
"ZX c #D6F8C6",
"AX c #EBFFCB",
"SX c #E7FFC5",
"DX c #F2FFC6",
"FX c #E8FFD7",
"GX c #F3FFD7",
"HX c #EFFFE6",
/* pixels */
"} } } } } } } } } } } } } } } } S.a.I I } I P ,.Z A.-.oXG 2.2. ...] F... ...1.{ { 2.>.>.>.<.2.{ } } } } } } } } } } } } } } } } ",
"} } } } } } } } } } } } } } } ..| | } B.B.<.>.>.A.2. . .2.1.1.1.V.} [ ] } S.] { <.<.<.<.{ P 2.S.} } } } } } } } } } } } } } } } ",
"} } } } } } } } } } } } } } } ..=.%.<.} ....I J >.P B.<.Z A.H H r.J U J Z.A.K C.>.I <.1.3. ...S.} } } } } } } } } } } } } } } } ",
"} } } } } } } } } } } } } } } ..%.1.<.P ] ..I J B.F a.K.C.t.t.I.t.r.P.H [ K [ [ B.I I } V.V...[ } } } } } } } } } } } } } } } } ",
"} } } } } } } } } } } } } } } } >.,.,.,.>.B.B.i.d.L x.O.p.F %XQ.$X( $.Q.x.j.a.i.D.D.i.U U m.m.I } } } } } } } } } } } } } } } } ",
"} } } } } } } } } } } } } } } >.,.;.;.,.<...| | | c.].uX:X1XnXDX=XuXzXpX^.OXz.l._ h.a.i.J n.n.I } } } } } } } } } } } } } } } } ",
"} } } } } } } } } } } } } } } } >.,.;.>.*.&.&.!.=XMXAXbX4XFXHXrX4XFXFX5XhXAXcX=X/.&.$.j.F.i.J :.I } } } } } } } } } } } } } } } ",
"} } } } } } } } } } } } } } } } <.U J <.q.q.#X2XVXeXSXgXSXZXFXrXHXZXSX0XAX-X9XSXyX#X#.$.z.| J B.} } } } } } } } } } } } } } } } ",
"} } } } } } } } } } } } } } } } { } } ] XXW.pXmX#X#.<XzX2X/.9XBX=X#XeXzX:X#.@.'.zXaX/./.( ....} } } } } } } } } } } } } } } } } ",
"} } } } } } } } } } } } } } } } V.} D.j.$.pXsXl.j.( l.!.[ ..oXX.D.( $.D.| u.k.` @.pXsXq.X.S.H...} } } } } } } } } } } } } } } } ",
"} } } } } } } } } } } } } } } } K I L [ &XkX&XD k.a.i.I A :.>.H I J J A J C.L.| S &XsX&X=.=.{ P } } } } } } } } } } } } } } } } ",
"} } } } } } } } } } } } } } } } V.C.I p.NXwX#.+Xh.h.a.V.m.H P H.[ i.M.M.i.u.| h.OXO.:XnXXX*.} A.} } } } } } } } } } } } } } } } ",
"} } } } } } } } } } } } } } } } V.[ | /.MX}._.5.9.^.R.9.&.l.9.9.`.~.@.f.Q.f.f.`.).5.{.NX/.$.| ..} } } } } } } } } } } } } } } } ",
"} } } } } } } } } } } } } } } } [ ..j.:XMXcXSXcXzXNXBXcXkXnXcXvXcXBXcXzXnXnXnXMXBXSXlXNX:Xj.a.[ } } } } } } } } } } } } } } } } ",
"} } } } } } } } } } } } } } } } >.A.K z.>X7X,X9X,X,X6X9X1X>X6X0X5XqX9X8X<X,X,X>X9X8X<X=X.X[ r.B.} } } } } } } } } } } } } } } } ",
"} } } } } } } } } } } } } } } } I U i.z.<XxXiXuXdXuXiXiXuXuXbXhXbXhXiXuXiXuXdXuXuXiXkX1Xl.a.r.J } } } } } } } } } } } } } } } } ",
"} } } } } } } } } } } } } } } } I B.D &XmX1XtX9X2X2X8XiXwX1X0X0XeX9XwXwX8X8X9XtX1XwX9XNX:X( B.<.} } } } } } } } } } } } } } } } ",
"} } } } } } } } } } } } } } } } [ S.` &XsX8.l 4 r #.g - R '.4.2 i `.9 ! z 4.f f i R 5.jX:X..V.<.} } } } } } } } } } } } } } } } ",
"} } } } } } } } } } } } } } } } ..F._ #XsX].4.w +.=X3 Q q ].e k r ]., f k 4.R q a Y._.zX:XD { { } } } } } } } } } } } } } } } } ",
"} } } } } } } } } } } } } } } } } S.h.:XsX`.z 2 i ^.s Q q ].w ; r +.q r 2 Q ! O ~ #X5.pX&X| <.I } } } } } } } } } } } } } } } } ",
"} } } } } } } } } } } } } } } } <.} [ &XsX).Q f ^.@Xq , B (.c h i Y.r ~ * 7.R $ R ].).sX:X[ I I } } } } } } } } } } } } } } } } ",
"} } } } } } } } } } } } } } } } P I a.&XsX).Q d ^.`.s 4 i f.R d s ).q _.e z R i 0 Q T.pX&X( B.Z.} } } } } } } } } } } } } } } } ",
"} } } } } } } } } } } } } } } } H...| #XkX8X6X6X0X>X0X6X;X1X0X6X5X0X X0X0X5X0X9X,X>XqXvX2Xx.j.D } } } } } } } } } } } } } } } } ",
"} } } } } } } } } } } } } } } } } [ | &XVXSXSXcXBXvXSXAXDXVXvXSXDXvXDXSXGXGXBXMXMXlXGXSX:X' j.S...} } } } } } } } } } } } } } } ",
"} } } } } } } } } } } } } } } } >.J i.p.1XMXiX5.0.>XDX7X<XCX6X6.6.8XMX8XgXSX>X5.T.iXxX9X(.z.} I } } } } } } } } } } } } } } } } ",
"} } } } } } } } } } } } } } } } I >.P.) 8.{.tXnXxXxX[._.`.].xXlXzXaX;X! |.6XsXsXkXuX{.+.' S.I B.} } } } } } } } } } } } } } } } ",
"} } } } } } } } } } } } } } } } V.K a.| {.{.=X<X9X7X{.[.{.[.}.0X<X].^.{.{.T.;X1X%X@X`.].x.Z.U A } } } } } } } } } } } } } } } } ",
"} } } } } } } } } } } } } } } } ....V.&XNXlXsXsXpXlXlXkXMXlXjXBX<XtXNXkX9XcXnXNX;XsXMXVX$XD <.P.} } } } } } } } } } } } } } } } ",
"} } } } } } } } } } } } } } } } } ..H *XaX'..Xx.OX&.z.$.z.!.~.pXiXeXiXcXqXbX8XiXVXcX5XlX:Xo.z.D } } } } } } } } } } } } } } } } ",
"} } } } } } } } } } } } } } } } S.S.K 3XmXY.p.u.j.S V.K [ a._ 2XzXVX>XiX0XvX9X).,X-Xw.BX<Xo.F...} } } } } } } } } } } } } } } } ",
"} } } } } } } } } } } } } } } ..%.z.| +XsX~.[ C.[ K.I A.B.K +Xh.:X:XY.pXVXxX<Xf.f.+._.zX$X] { I } } } } } } } } } } } } } } } } ",
"} } ....} } } } } } } } } } } } %.%.j.$.mXyXx.D $./ ..K / j._ O.#.+.+.'.wXwX].#.g.(.wXnXj.} J >.} } } } } } } } } } } } } } } } ",
"r.} ....} } } .. .1.>.>.I J M.J 1. .z.z.OXyXfXpXjXjXaXaXjXlXaXkXxXzXlXiXdXpXsXsXsXnXaX/.z.V.J >.{ B.{ P B.<.I } } } ....} } } } ",
"r.r.....} >.} ..3...P >.<.<.>.>.{ [ a.| j.x.#X:X<X-X=X-X<X>X<X;X<X=X<X<X<X;X;X:X#X#XXXo.j.[ I I V...{ } I >.B.B.} } ....} } } } ",
"n.r.} ..>.>.} ..S...{ { 1...K { <.<.:.I K.) D L | $.o._ a.F d.) p.S | h.$.l._ O.x.( [ i.C.} B.B.] { H.H.J H I } } } ......} } } ",
"r.I ....I >.} ..] } B.} S.F.| H.K B.J A i.[ C.Z.I B.a.[ J J r.r.r.I I I K a.V.[ j.[ V.i.} } K 1.S...K K J B.B.I } } ....} } } } ",
"....%...} I ....} <.B.I | j.[ [ } <.H r.t.C.i.F } <.C.} I P.i.B.>.M.:.m.m.J A.I [ S.K.| ..S.H <.] S.1.P B.B.I B.} } ....} } } } ",
"....%...} I } ..[ [ I D.!.!.+Xx.z.F..XG.D.L.j.k.[ K ....} V.[ [ J >.P K Z.U J U B.S.o./.z.j.B.B.[ j.V.B.A.I H <.} } ....} } } } ",
"} } } I :.>.} ..H.V.[ x.Y 7 i q 8 T 0.q t t h #Xj.j.z.j.a.n ` k.V...W.N &.G.a.B.C.S t [.~ t d.t.K.n p S } A.B.P } } ....} } } } ",
"} } } >.:.>.} ..[ a.a.$Xg X 0 0 < T 6.X q 7 ; r l.x.z.$.' # W !.a.] q.# k ].$.i.C.a o {.T X c.L.p & t D.C.K V.I } } ....} } } } ",
"*.%...} I } ....[ i.u.+Xf 3 ;X@X%X^.6.* W %XR X f.z.h.XX8 X 0 @Xa.j.).- . x #X) k.m ; ].z ; ].i X m $X| } } <.K } } ....} } } } ",
"*.%...} I } ..| I r.i.x.f , W W E f.5.+ c.(.Q + f.c.W.+.2 d : ~ d.) ).$ b O s @Xx.B o E.7.: v @ W h.x.( [ Z.I A.} } ....} } } } ",
"} } >.:.:.>...| B.i.a.l.k o ; * X f `.+ i d . h v.c.].q 3 Q.2 i +Xk.~.- Q T $ i +Xj 4 ].c . . z =Xl.$.*X} K K B.} } ....} } i.i.",
"} I :.:.:.>...%.K I D..Xk , ! Y.+.^.E * O @ ^ `.p.y.'.O B %Xd @ c.p.f.$ B #XY O B B * _.^ = v @ 8.(._ z.| [ Z.K <.} } ..} } i.i.",
"....>.:.>.} *.*.B.m.L x.i - (.J..XXXM 3 E O 5._.h.!.Y . , * 4   f (.' 3 C y.+Xm o 4 2 ].Q = _.0 2 @.$X( j.a.<.<.<.} } } } } i.i.",
"%...>.:.>.} *.*.I J U +Xg < +XD D h.9.X !.M X [.OX` $ h f.~ T.x * '.c.# m J.u.G.Y   * `.c = E.]., < l.G.a.} K Z.<.<.} } } } i.i.",
"..} :.:.>.} *.*.I A.Z.D.t > h.i.i.F.E # V &X3 > x.m % O.x.!.].T.* l {.. W +X` h.OXh 3 `.R - g.g.f.- t ` | V.V.<.<.<.} } } } i.i.",
"} I :.:.:.>...%.B.} [ h.~ Y J.[ } ..o.B j.h.+.Y j.m V G.j.) k.Q.E ! Y.E ' ` !.z.z.x.M ^.' m v.x.!.f.p / G.} { { <.} } } } } i.i.",
"a.} I >.:.>.>.} } | .X(.~.OXL i.a.+X] Z.A.V.oXz.D.s.G.G.| a.U B.k.G.u.*X+X&.XX@.[ B.a.K.D.s.+XO.p.+X+Xa.D.[ } B.} } } } ........",
"a...} <.>.:.:.I L.h.E Y.+.x.C.[ #.O.i.J U } V !.$.V ` ' !.G.U U D.J.D n n ! ).'.d.r.[ V S S E @X!.V ) ( p.a.V.K } } } } ........",
"......} >.>.>.I [ W.$ $ % t k.+X8 y D.m.>...1 Y 9.3 $ $ 3 R j.K.@.q # o > X   Y p.p.t o > $ $ T Y o > % t G.[ V...} } } } } ....",
"......} <.>.>.i.h.f.O Q 5.$ p OX3 7 K.r.B.z.o T _.X R [.4 $ Q.O.q o g `.`.0.i $ ) +Xw 5 6.4.! ).! O ~ ! $ 8 h.D...} } } } } } } ",
"........<.<.} a.+X+.O _.}.$ a @Xw q I.A p.W.# 7._.O E {._.X ~ ! . 5.&Xp.F s.I.F t.J.7 u ;X@Xv.+Xl 2 {.>XM # x.j...} } } } } } } ",
"........<.} } a.O.Y.; e w 4 ~.#X4 q b.t.D.~.o e.`.; R E.w ; ).7 7 R.p.t.C.d.K.K.v.(.e $ q 7 8 S Q @ |._., 8 .Xj.a.} } I } } } } ",
"} } ....} } } a.!.8.O 2 ; 2 f ].w w v.t.s.W.- 7.T.* = = ; 5.@X7 0 ;Xc.y.+Xa ; 3 q 5.e * r q q #.e.+ 2 + 3 @X' j.i.} } I } } } } ",
"I } } ..} } } | x.+.* 6.}.Y X Y.6 0 @Xp.h.W.$ R `.* 0 @ _.{.Q.r , R.v.c.g.h s e   _.u 6 #X@Xv.(.z * 6 2 #XW.l.| i.} I I } } } ..",
"I I } } } } } a.z.#.- ! >XT.X ~ l @ ;X].~.Y.$ ! T.O U.6 : ).@XE o f +XL.p.:X}.e 2 }.u e =X!.c.+XY * _.$ r $Xp.} i.I >.<.} } ....",
":.>.I <.} <.} i.j.` $ h h $ > !.W * w 6.4.9 , l.~.  ^ >X- i h.!.r - 8 C / h 7 X E ].e - M a a h.R O `.W > m V.A.} I >.<.} ......",
"n.>.I <.<.<.>.I a.z.< , 7 t z.z.c.W , $ $ < _ +X` < #.Y.B 1 | h.!.p 1 1 $ o 8 E K.a.t % < > % M R 7 l.` p 8 L I } I } } } ......",
"n.>.} } } <.>.I L a.x.Q.!.OX+XD t.J.R.5.8./.K.U i.K.' .Xz.a.i.V.G.G.$.' ! #.W.G.A t.D.&.!.XX@.OXl.x.| G.a.[ [ Z.} } } } } ......",
"r.I } } <.<.>.>.Z.L x.z.$.| S Z.C.D z..XK.V.Z n.r.u.z.` S.H M.Z [ z.j.a.G.G.a.I N.n.j.$._ | j.| | D.[ a.L V.[ K } } } } } ......",
"r.I } ....<.>.>.I V.u.| j.K.V.B.V.i.a.] K >.:.M.m.K D.j.] P :.,.] %.B.} I K [ B.;.:.| .XF.} V.[ a.[ I.K V.[ 1.} } } } } } } } } ",
"r.i.........<.>.J i.a.D.S.D P P I i.} { } ..1.P >.B.} ..%.H.G 1.3.%.J U I V.F...m.>.] ..[ I V.S.} V.K B.} H.K V.....} } } } i.i.",
"r.i.........<.>.A.K S.] | ..A.P B.i.B.P ..3. . .<.I } ..F.*. .3.*. .:.n.I } *.*.{ <.S...>.B.} } } K C.{ 1.K S.] ......} } } i.i."
};
