/* XPM */
static char *_a21b72ca72a4743c3eefcd15ad78682kbqRJggbSuiOtYkl[] = {
/* columns rows colors chars-per-pixel */
"64 64 238 2 ",
"   c None",
".  c black",
"X  c #3F0911",
"o  c #332925",
"O  c #3D2927",
"+  c #3D2E2A",
"@  c #34302C",
"#  c #36312D",
"$  c #37332D",
"%  c #410911",
"&  c #6B1E26",
"*  c #731F28",
"=  c #791F2A",
"-  c #7C1E29",
";  c #7D1E29",
":  c #412B29",
">  c #482B2A",
",  c #502426",
"<  c #552629",
"1  c #5E2529",
"2  c #5D262A",
"3  c #5B2F31",
"4  c #463533",
"5  c #5C3534",
"6  c #533E3D",
"7  c #5E3E3F",
"8  c #632027",
"9  c #61272B",
"0  c #682C2F",
"q  c #75242D",
"w  c #79232D",
"e  c #7D212C",
"r  c #643135",
"t  c #7F373F",
"y  c #72393E",
"u  c #49423A",
"i  c #49423B",
"p  c #4A433B",
"a  c #4A453E",
"s  c #4A4641",
"d  c #4F4D48",
"f  c #574F46",
"g  c #504D49",
"h  c #555049",
"j  c #54534F",
"k  c #5E534B",
"l  c #59534C",
"z  c #59534D",
"x  c #5F574F",
"c  c #5F5952",
"v  c #5D5A56",
"b  c #5D5A57",
"n  c #624240",
"m  c #644D4D",
"M  c #6D4D4B",
"N  c #724D4D",
"B  c #724F51",
"V  c #6C6155",
"C  c #65605B",
"Z  c #696158",
"A  c #6B645D",
"S  c #72665A",
"D  c #73685B",
"F  c #73685D",
"G  c #70685F",
"H  c #6D6260",
"J  c #6C6965",
"K  c #6C6A66",
"L  c #756A60",
"P  c #726B64",
"I  c #776B67",
"U  c #7C6F61",
"Y  c #726F6C",
"T  c #767068",
"R  c #72706C",
"E  c #76726D",
"W  c #76726E",
"Q  c #7D746A",
"!  c #7C7772",
"~  c #7F7870",
"^  c #7F7B73",
"/  c #871A28",
"(  c #801C29",
")  c #801E2A",
"_  c #881D2A",
"`  c #901A2A",
"'  c #921B2B",
"]  c #921C2B",
"[  c #99192B",
"{  c #9C182A",
"}  c #9D182B",
"|  c #981C2C",
" . c #A1172A",
".. c #A2162A",
"X. c #AA1228",
"o. c #AA152B",
"O. c #AA172B",
"+. c #AC172C",
"@. c #AD172C",
"#. c #AE172D",
"$. c #A1182B",
"%. c #A4192D",
"&. c #A6182C",
"*. c #A61B2E",
"=. c #AA182C",
"-. c #AA182D",
";. c #AB182D",
":. c #AC182D",
">. c #AD182D",
",. c #AE182D",
"<. c #AF182E",
"1. c #82242F",
"2. c #812B35",
"3. c #822D36",
"4. c #8A2D38",
"5. c #8A2F3A",
"6. c #86303A",
"7. c #92303C",
"8. c #8A4049",
"9. c #895252",
"0. c #935054",
"q. c #836361",
"w. c #8B686B",
"e. c #84786B",
"r. c #80786E",
"t. c #907778",
"y. c #A17C76",
"u. c #AE757B",
"i. c #B5767E",
"p. c #CA6876",
"a. c #C2747F",
"s. c #8E8276",
"d. c #8E8377",
"f. c #848179",
"g. c #85807B",
"h. c #81807D",
"j. c #82817E",
"k. c #84817D",
"l. c #89847D",
"z. c #9B8C7D",
"x. c #A6817F",
"c. c #BC7981",
"v. c #D07A86",
"b. c #878582",
"n. c #8D8781",
"m. c #8F8D8A",
"M. c #908982",
"N. c #948C82",
"B. c #978E84",
"V. c #988A86",
"C. c #9A8F84",
"Z. c #9A8E87",
"A. c #95938F",
"S. c #9A958D",
"D. c #9B9A94",
"F. c #A38789",
"G. c #A79B8D",
"H. c #A29B91",
"J. c #AB9991",
"K. c #B49F96",
"L. c #A5A19D",
"P. c #B3A099",
"I. c #B1A69A",
"U. c #B2A99F",
"Y. c #B6AB9F",
"T. c #ACAAA8",
"R. c #B0AAA4",
"E. c #BAAFA2",
"W. c #B3B0AA",
"Q. c #BDB4AC",
"!. c #B6B3B2",
"~. c #B5B4B2",
"^. c #B6B5B3",
"/. c #BABAB8",
"(. c #D58792",
"). c #D68D97",
"_. c #D7909A",
"`. c #C1B7AC",
"'. c #C1BAB2",
"]. c #C5BDB3",
"[. c #C3BEB7",
"{. c #C0BDBB",
"}. c #C0BEBC",
"|. c #BEC0BD",
" X c #CAC2B7",
".X c #CFC2B4",
"XX c #CDC3B8",
"oX c #CFC4B9",
"OX c #C8C3BC",
"+X c #D1C9BE",
"@X c #D2CABF",
"#X c #C3C2C0",
"$X c #CDC8C2",
"%X c #D3CAC0",
"&X c #D1CFCB",
"*X c #D1D0CF",
"=X c #D1D1D0",
"-X c #D3D1D0",
";X c #D7D6D5",
":X c #DCD6D0",
">X c #D8D9D8",
",X c #DBDAD9",
"<X c #DEDCDA",
"1X c #DFDEDE",
"2X c #E0D7CB",
"3X c #E6D9CA",
"4X c #E1D8CD",
"5X c #E5DACC",
"6X c #E3DDD1",
"7X c #E3DCD3",
"8X c #E2DEDD",
"9X c #ECE3D7",
"0X c #EAE2D8",
"qX c #ECE6DA",
"wX c #EFE6DB",
"eX c #F0E7DB",
"rX c #F3EBDF",
"tX c #F4EBDF",
"yX c #F8EDDF",
"uX c gray88",
"iX c #E9E8E8",
"pX c #EFEFEE",
"aX c #F6EFE5",
"sX c #F0EFED",
"dX c #FDF0E1",
"fX c #F8F0E4",
"gX c #FEF5E9",
"hX c #FFF5E9",
"jX c #FFF6EA",
"kX c #FFF7EB",
"lX c #FFF8EC",
"zX c #FFF9EF",
"xX c #F6F5F5",
"cX c #FFF9F1",
"vX c #FFFAF4",
"bX c #FFFBF6",
"nX c #FDFCF9",
"mX c white",
/* pixels */
"                                                                                                                                ",
"                                                                                                                                ",
"                                                                                                                                ",
"                                                                                                                                ",
"                                                                                                                                ",
"                                                                                                                                ",
"                                                                                                                                ",
"                                                                                                                                ",
"                                                                                                                                ",
"                                                                                                                                ",
"                                                                                                                                ",
"                                                                                                                                ",
"                                                                                                                                ",
"                                                                                                                                ",
"                                                                                                                                ",
"                                                                                                                                ",
"                                                                                                                                ",
"                                                                                                                                ",
"                                                                                                                                ",
"                                                                                                                                ",
"                                                                                                                                ",
"                                                                                                                                ",
"                      b.^.#X^.m.                                                                                                ",
"          :.:.:.] O J *XpXmXmXxX!.6.+.:.:.:.:.:.                                                                                ",
"          :.:.:.* $ J C ! $XlXcXnXF.} :.:.:.:.:.                                                                                ",
"          :.:._ 4 j.n..XqXrXkXkXaX{.4.+.:.:.:.:.                                                                                ",
"          :.:./ H /.s.dXkXkXkXlXtXD.y O.:.:.:.        :.:.    :.:.    :.:.:.:.:.    :.:.:.:.                                    ",
"            :.} m j.z.yXfXkXeX%X Xf.9 ;.:.:.:.        :.:.  :.:.      :.:.      :.:.:.                                          ",
"            :.[ 6 R G Q P H.T Z G S.q.$.:.:.:.        :.:.:.:.        :.:.:.:.  :.:.                                            ",
"            :.;.2 j l B.M.C.+X2X'.6Xx...:.:.:.      :.:.:.:.:.        :.:.:.:.  :.:.                                            ",
"            :.:.= $ h 5X`.G.9XY.3XqX0.O.:.:.:.      :.:.    :.:.    :.:.:.      :.:.:.                                          ",
"            :.:.%., $ e.c f.L.T.N.U.1.+.:.:.:.      :.:.    :.:.:.  :.:.:.        :.:.:.:.:.                                    ",
"            :.:.:.) o V l Y k.E ~ P.| :.:.:.:.                                                                  .               ",
"            :.:.:.;.8 D U a [.0X4XC.e %.+.+.          :.        :.:.      .           .         . .       . . . .               ",
"            :.:.:.:.' + S A iXvX].A.I 0 2.7.        :.  :.    :.  :.:.  . .   . . . .   . .   .   . .   . .   . .               ",
"              :.:.:.) k f s 1X}.E uXW.9.w.,X        :.:.:.  :.      :.X .     . . .       . . .     . . .     . .               ",
"              +...- > l.oXp b b g -X&Xy.t ,X            :.:.:.:.    :.% .     . . .       . . .     . . .     . .               ",
"              4.N : M I.Q.x p p ~ ;XsXK.- t.        :.  :.:.  :.:.:.:.  . . . . .   . . . .   . . . .   . . . . .               ",
"              -X+X5 B 6XXX:Xr.d OX<X8XJ.3.q                                   . .                                               ",
"              mXE.2 7 |.R.V.n r 8.u.i.c.a.%.                            . . . .                                                 ",
"              vXs.& < 3 w ' $.;.X.p.v.(.).                                                                                      ",
"                L                       _.                                                                                      ",
"                                                                                                                                ",
"                                                                                                                                ",
"                                                                                                                                ",
"                                                                                                                                ",
"                                                                                                                                ",
"                                                                                                                                ",
"                                                                                                                                ",
"                                                                                                                                ",
"                                                                                                                                ",
"                                                                                                                                ",
"                                                                                                                                ",
"                                                                                                                                ",
"                                                                                                                                ",
"                                                                                                                                ",
"                                                                                                                                ",
"                                                                                                                                ",
"                                                                                                                                ",
"                                                                                                                                ",
"                                                                                                                                ",
"                                                                                                                                ",
"                                                                                                                                ",
"                                                                                                                                "
};
