/* XPM */
static char *_7719720e7df4d1fd4f0e70377880c25g0dJVKSyFTC9EmyY[] = {
/* columns rows colors chars-per-pixel */
"64 64 192 2 ",
"   c #000000",
".  c #0B0B0B",
"X  c #100F0F",
"o  c #141414",
"O  c #1C1C1C",
"+  c #252424",
"@  c #2C2B2B",
"#  c #302F2F",
"$  c #343434",
"%  c #3C3B3B",
"&  c #464545",
"*  c #4A4A4A",
"=  c #545454",
"-  c #585757",
";  c #5C5B5B",
":  c #656464",
">  c #686767",
",  c #6E6D6D",
"<  c #706F6F",
"1  c #727171",
"2  c #787777",
"3  c #7C7B7B",
"4  c #AF0029",
"5  c #B1052E",
"6  c #B10730",
"7  c #B30A33",
"8  c #B41037",
"9  c #B5143B",
"0  c #B7183E",
"q  c #B71A40",
"w  c #B81D42",
"e  c #BA2146",
"r  c #BB254A",
"t  c #BD2A4D",
"y  c #BE2E51",
"u  c #BF3154",
"i  c #C03557",
"p  c #C23C5D",
"a  c #C44463",
"s  c #C74C6A",
"d  c #C74D6A",
"f  c #C9516E",
"g  c #CA5672",
"h  c #CB5A75",
"j  c #CC5D78",
"k  c #CE637D",
"l  c #F49F00",
"z  c #F4A100",
"x  c #F4A50B",
"c  c #F5A814",
"v  c #F5AA18",
"b  c #F6AE23",
"n  c #F6B12A",
"m  c #F6B535",
"M  c #F7B63A",
"N  c #F7BA43",
"B  c #F7BD4C",
"V  c #F8BE4D",
"C  c #F8BF51",
"Z  c #F8C055",
"A  c #F8C35B",
"S  c #F8C663",
"D  c #F9C86B",
"F  c #F9CC73",
"G  c #F9CE7B",
"H  c #FAD07D",
"J  c #004E84",
"K  c #005186",
"L  c #055488",
"P  c #08578A",
"I  c #0D5A8C",
"U  c #125D8F",
"Y  c #155F90",
"T  c #166090",
"R  c #1C6493",
"E  c #246997",
"W  c #296D9A",
"Q  c #2E719C",
"!  c #31739E",
"~  c #39769F",
"^  c #3777A0",
"/  c #3D7AA3",
"(  c #567A9F",
")  c #437FA6",
"_  c #557BA1",
"`  c #BC7690",
"'  c #CF6780",
"]  c #D06780",
"[  c #D16D85",
"{  c #D27087",
"}  c #D3738A",
"|  c #D5798F",
" . c #D67C92",
".. c #4781A8",
"X. c #4D86AA",
"o. c #5582A6",
"O. c #538AAD",
"+. c #5A8FB1",
"@. c #5E91B3",
"#. c #6898B8",
"$. c #799AB7",
"%. c #75A1BE",
"&. c #7BA5C1",
"*. c #848383",
"=. c #888787",
"-. c #8C8B8B",
";. c #949393",
":. c #9C9B9B",
">. c #A09F9F",
",. c #A4A3A3",
"<. c #AAAAAA",
"1. c #B3B3B3",
"2. c #BCBBBB",
"3. c #D78196",
"4. c #D98599",
"5. c #DA899C",
"6. c #DB8EA1",
"7. c #DD93A5",
"8. c #DF98A9",
"9. c #E09DAD",
"0. c #C0BFBF",
"q. c #E3A4B3",
"w. c #E4A9B7",
"e. c #E5ABB9",
"r. c #ECBCB7",
"t. c #E7B1BE",
"y. c #FAD283",
"u. c #FAD58C",
"i. c #FBD997",
"p. c #FBDEA3",
"a. c #F2CDBA",
"s. c #FBE0AB",
"d. c #FCE6BA",
"f. c #83AAC4",
"g. c #89AFC8",
"h. c #8DB1C9",
"j. c #93B5CC",
"k. c #97B8CE",
"l. c #9EBDD1",
"z. c #A1BFD2",
"x. c #E7B4C0",
"c. c #E9B9C5",
"v. c #EBBEC9",
"b. c #ABC6D8",
"n. c #B4CBDB",
"m. c #B8CFDE",
"M. c #BAD0DF",
"N. c #BED2E0",
"B. c #C3C2C2",
"V. c #C8C7C7",
"C. c #CBCBCB",
"Z. c #D0D0CF",
"A. c #D4D3D3",
"S. c #DCDCDC",
"D. c #E4C0CB",
"F. c #ECC3CD",
"G. c #EDC5D1",
"H. c #EECAD3",
"J. c #F0CFD7",
"K. c #E1D6DF",
"L. c #F2D4DC",
"P. c #F3D9DF",
"I. c #FDEAC2",
"U. c #FEEDCC",
"Y. c #FDEFD3",
"T. c #FEF3DB",
"R. c #C9DAE6",
"E. c #CBDBE6",
"W. c #D0DFE9",
"Q. c #F4DDE3",
"!. c #D7E4ED",
"~. c #DAE6EE",
"^. c #DAE7F0",
"/. c #E4E4E4",
"(. c #E8E8E7",
"). c #ECEBEB",
"_. c #F6E1E5",
"`. c #F7E8EA",
"'. c #F8EAED",
"]. c #FAF3E7",
"[. c #FFF9EC",
"{. c #E2ECF2",
"}. c #E8EFF4",
"|. c #FAEDF1",
" X c #EBF2F6",
".X c #EDF4F8",
"XX c #F5F4F4",
"oX c #FBF3F5",
"OX c #FEFBF4",
"+X c #F6F6F9",
"@X c #F5F9FB",
"#X c #FEFEFE",
/* pixels */
"                                                                                                                                ",
"                                                                                                                                ",
"                                                                                                                                ",
"                                                                                                                                ",
"                                                                                                                                ",
"                                                                                                                                ",
"                                                        . o o O O o o .                                                         ",
"                                                X + % = ; : , , , , : ; = % + X                                                 ",
"                                          . + * : , 1 < , < 1 1 1 1 1 , , < , : * + .                                           ",
"                                      . @ - , 1 , 1 *.;.<.B.C.A.A.A.V.2.,.-.2 < < , - @ .                                       ",
"                                    O = , < , 3 ,.C.).#X#X#X@X.X.X.X@X#X#XXX/.2.;.2 , , = O                                     ",
"                                . % , 1 , *.1.(.#X@X!.b.h.g.j.z.b.M.E.W.{.@X#X#XXXA.:.1 < > % .                                 ",
"                              . * < , 2 <.(.#X}.l.#.#.l.W. X@X#XOXOXOXOX@X@X#X#X#X#X+XC.=.< , * .                               ",
"                            o - 1 , *.C.#X.Xj.X.%.W.@XOXU.i.F V N Z D G y.i.Y.#X#X#X#X#X).<.1 < - o                             ",
"                          o - 1 , ;./.#XN...@.W.#X[.i.N c z l l z z c m F y.N S U.#X#X#X#X+X2.2 < - o                           ",
"                        . = 1 , :.).@Xh.Q j.@X#Xd.A x l z z z z z z z z z u.U.c v s.#X#X#X#X#XV.2 < = .                         ",
"                      . & 1 , ;.).@X%.W n.#XOXu.A c z z z z z z z z z z z S y.c x B [.#X#X#X#X#XB.2 < & .                       ",
"                      $ , , =.(.@X%.E N.#X#Xy.D n z z z z z z z z z z z b C F p.U.[.#X'.L.P.#X#X#X2.1 , $                       ",
"                    o : < 2 A.#Xh.T b.#X#Xi.S Z z z z z z z z z v N H d.T.OX|.L.e.q. .u w q  .#X#X+X,., : o                     ",
"                    & 1 , 1.#Xm.U f.#X#XT.N u.x z z z z x m D p.T.OX_.G.L.L.a w 9 k s 9 5.e t '.#X#X(.*.< &                     ",
"                  O , , =.). X! / .X#X#XG A D l z x M H I.OX#X#XoX4.r 7 q 3.9 p c.P.g q 7.w k #X#X#X#XB.1 , O                   ",
"                  * 1 1 B.#Xf.P n.#X#X[.n v b M y.I.OXoXG.7.q.|.5.7 y  .4.e.0 e p | h 7 9 9 c.#X#X#X#XXX-.< *                   ",
"                o : , =.XX~.R ..@X#X#XT.B F I.OXoXP.H.a w 9 7 | u q t.t. .4.q e  .J.j 9 s 7 a _.#X#X#X#XB.1 : o                 ",
"                $ 1 , 1.#Xf.K z.#X#X#X#XOXoXQ.#X7.e | 7 h 6.7 s 0 p x.w 5 h w a v.w.f 9 F.] w v.#X#X#X#X).*.< $                 ",
"              . = 1 2 S..X! E {.#X#X#X#X#X4.t J. .7 { 9 f j r 9.q y P.7.7 h w 7 9 a | { P.F.q._.#X#X#X#X#X,., = .               ",
"              o : , -.+XN.L O.#XoXF.[ s 8.k 7 F.4.7 [ 0 8 6 p L.s 5 p i 9 6.k | e._.F.] y w w u w.#X#X#X#XC.1 : o               ",
"              + , , <.#Xf.J g.#X{ 0 i 7 y g 7 v.5.7 [ 9 p a 5 h F.g u s q.'.c.P.#Xw.e 5 5 5 5 4 k #X#X#X#X/.3 , +               ",
"              % 1 , B.#XO.K n.#Xs 0 e.t h k 7 v.6.7 { 9 h P.f j oX#X|.#X'.g 9 7.H.e 5 7 s 5.6. .H.#X#X#X#XXX-.< %               ",
"              & 1 1 A..X! I E.#Xs 7 i 7 | ] 7 6.j 9 7.i 9.#X'.e. .6.oX#Xc.7 5 5.[ 5 7 [ oXoXL.q.q.#X#X#X#X#X:.< &               ",
"              = 1 2 /.{.R Y !.#Xf 7 [ u 9 f 7 7 7 k '.J.w.5.v.w 5 7 { #Xt.7 6 } i 5 q L.e.i q 6 s #X#X#X#X#X<., =               ",
"            . - 1 3 (.!.U T !.#Xg 9 x.a 9 t. .k 7.'.oXj 7 u x.9 7 7 7 4.t.7 6 k t 5 r `.6.7 7 5 s #X#X#X#X#X1., - .             ",
"            . - 1 3 ).!.U T !.#Xh 7 t 0 3.#X#Xv.s | x.9 5 u x.0 7 7 7 9 g 7 6 k t 6 9 F.oXt.r 5 s oX#X#X#X#X1., - .             ",
"            . - 1 3 (.!.T I E.#Xh 9 h x.P.#X'.a 5 q 5.9 6 y x.q 7 7 7 7 7 7 5 { s 5 7 a 8.{ 9 5 h #X#X#X#X#X1., - .             ",
"            . = 1 2 /.{.E L n.#Xt.F.c.' a `.7.7 5 g x.9 6 t c.w 5 p f 6 7 7 5  .w.9 5 6 6 5 5 w x.#X#X#X#X#X<., = .             ",
"              * 1 1 A..X^ J j.#X#XQ.r 5 t F.u 5 w H.F.9 6 t c.w 5 f Q.a 5 7 5 { #X9.u 9 9 r h F.#X#X#X#X#X#X:.< *               ",
"              % 1 , B.#X+.J @.#X#XQ.e 5 r h 7 7  .#XF.9 6 r c.e 5 s #XP.i 5 5  .#X#X'.F.r.a.oX#X#X`.G.'.#XXX=.< %               ",
"              @ < , <.#Xh.J W {.#XQ.e 6 7 7 6 r P.#XH.9 6 r c.r 5 a oX#XH.f g P.OXY.i.A n N [.#X#Xw. .x.#X/.2 , @               ",
"              O , , -.+XE.I L b.#XQ.r 6 7 6 7 7 { oXH.9 6 e c.e 5 | #X#X#X].d.y.N c x Z x S #Xn.b.D.q.L.#XV.1 , O               ",
"              . ; 1 2 S.@X/ J X.@X_.r 6 9 t 7 7 7 [ F.0 5 u H.h 6.'.[.d.F m x z z l N d.b I..X^ L X.n.@X#X,., ; .               ",
"                & 1 , 1.#Xh.K I n.`.t 5 e x.a 5 7 7 3.e u e.#X].d.F m x z z z z z x p.S D #Xk.K K J !  X).*.1 &                 ",
"                + , , *.).{.W J / K.t 5 w Q.P.p 5 q e.c._.U.y.M x z z z z z z z z A u.B ].^.W J K J &.#X0.< , +                 ",
"                . - < < 0.#Xg.K K $.y 5 w P.#XQ.8.c.].p.V c z z z z z z z z z z M H V Y.@X@.J K J W ^.XX=.< - .                 ",
"                  @ , , *.)..X/ J ( t 5 a '.#X#XT.G n z z z z z z z z z z z z n A S T.#Xf.L K K L k.#X2.1 , @                   ",
"                  . - < , <.#XN.U _ j ` Q.#X#X#Xi.z l z z z z z z z z z z z c V i.OX#Xk.I K K J +.@X/.*.< - .                   ",
"                    + , < 2 A.#Xj.~ o.E g.+X#X#XOXp.M x z l l z z l l z c M u.T.#X@Xh.I K K J ^ {.+X:., , +                     ",
"                      & 1 , *./.#X&.K J L O.E.#X#X#XOXI.u.S V N N C D i.U.OX#X#X~.#.L K K J W W.#X1.1 1 &                       ",
"                      . - 1 , ;.).@X&.P J J T %.W.@X#X#X#X#X#XOXOX#X#X#X#X#X{.j.W J K K J ! E.#XB.2 1 - .                       ",
"                        O : 1 , ;.).#Xk.T J K J Y O.k.E.}.@X#X#X#X#X@X{.m.%.W K J K K K X.!.#XB.2 < : O                         ",
"                          @ , 1 , -./.#XE.) K J K J K I W ) O.@.@.O./ E P J J K K J T f..X#X2.2 < , @                           ",
"                            @ , 1 , *.V.#X.Xk.! K J K K J J J J J J J K K K J J U +.E.#X).,.1 < > @                             ",
"                              + : 1 , 1 ,./.#X Xz.X.T K J J J J J J J J K I Q %.E.#X+XV.*., 1 : +                               ",
"                                O - 1 < , 3 1./.#X@X!.b.&.+.) ^ ^ / X.#.j.E..X#XXXC.;.1 , 1 - O                                 ",
"                                  . % > 1 , , 3 >.V.(.#X#X#X@X@X@X@X#X#X#XXXS.1.-.1 , 1 > % .                                   ",
"                                      O * , 1 < , 1 3 ;.<.2.V.C.Z.C.B.1.:.=.2 , , 1 , * O                                       ",
"                                        . O & : < 1 < , , , < 1 1 < , , , < 1 < : & O .                                         ",
"                                              o @ * ; , , 1 1 1 1 1 1 , , ; * @ o                                               ",
"                                                    . o + # $ % % $ # + o .                                                     ",
"                                                                                                                                ",
"                                                                                                                                ",
"                                                                                                                                ",
"                                                                                                                                ",
"                                                                                                                                ",
"                                                                                                                                ",
"                                                                                                                                "
};
