/* XPM */
static char *_c1fb13db2b545a8e1ea68815c8ace99iZloaans1B9RREuK[] = {
/* columns rows colors chars-per-pixel */
"64 64 188 2 ",
"   c None",
".  c #E30613",
"X  c #E30513",
"o  c #E30313",
"O  c #E30913",
"+  c #E40D13",
"@  c #E30413",
"#  c #E40C13",
"$  c #EC4F11",
"%  c #F69510",
"&  c #F8A60F",
"*  c #F38310",
"=  c #E93212",
"-  c #E93312",
";  c #F69610",
":  c #EC4C11",
">  c #E41013",
",  c #F27C10",
"<  c #FED70E",
"1  c #FFE30E",
"2  c #FFE20E",
"3  c #FCC60F",
"4  c #ED5111",
"5  c #FED40E",
"6  c #F17011",
"7  c #E40B13",
"8  c #E30813",
"9  c #F17410",
"0  c #FFDC0E",
"q  c #FFDD0E",
"w  c #F79D0F",
"e  c #F17510",
"r  c #FBC10F",
"t  c #FFE10E",
"y  c #FDCB0E",
"u  c #EB4212",
"i  c #FBC20F",
"p  c #F27610",
"a  c #F69B10",
"s  c #FED90E",
"d  c #F06611",
"f  c #EB4611",
"g  c #FED20E",
"h  c #E51513",
"j  c #E20213",
"k  c #EA3F12",
"l  c #FCC90E",
"z  c #F9B20F",
"x  c #E61E12",
"c  c #E61D12",
"v  c #EB4112",
"b  c #E51413",
"n  c #F69A10",
"m  c #FDCD0E",
"M  c #EA3E12",
"N  c #F8A90F",
"B  c #FDCE0E",
"V  c #E93712",
"C  c #FFDF0E",
"Z  c #FFDE0E",
"A  c #F27910",
"S  c #E93612",
"D  c #F8A40F",
"F  c #E51313",
"G  c #ED5511",
"H  c #FFDA0E",
"J  c #F69710",
"K  c #E40A13",
"L  c #E82A12",
"P  c #FCC80E",
"I  c #FFE00E",
"U  c #FCC30F",
"Y  c #E72712",
"T  c #E82D12",
"R  c #FFD90E",
"E  c #E40F13",
"W  c #F7A30F",
"Q  c #ED5711",
"!  c #E30213",
"~  c #E30A13",
"^  c #F16F11",
"/  c #F69910",
"(  c #FFDB0E",
")  c #E41113",
"_  c #EA3A12",
"`  c #E72812",
"'  c #EE5E11",
"]  c #FAB40F",
"[  c #E51713",
"{  c #EF6111",
"}  c #FCC70E",
"|  c #FED50E",
" . c #F27810",
".. c #F8A70F",
"X. c #E40E13",
"o. c #FDCF0E",
"O. c #FED80E",
"+. c #EB4512",
"@. c #FDD10E",
"#. c #E93412",
"$. c #F8A50F",
"%. c #F9AF0F",
"&. c #F37F10",
"*. c #FAB70F",
"=. c #F38410",
"-. c #FAB80F",
";. c #E51813",
":. c #F37D10",
">. c #FAB90F",
",. c #E61A13",
"<. c #E93512",
"1. c #EE5911",
"2. c #FCC40F",
"3. c #F69810",
"4. c #EE5711",
"5. c #FED60E",
"6. c #EF6311",
"7. c #F27710",
"8. c #EA3812",
"9. c #FED30E",
"0. c #F59110",
"q. c #FCC50F",
"w. c #E72312",
"e. c #EE5811",
"r. c #E72212",
"t. c #F7A10F",
"y. c #E51613",
"u. c #FAB50F",
"i. c #EA3D12",
"p. c #F9B10F",
"a. c #E62012",
"s. c #E82E12",
"d. c #F48610",
"f. c #E61B12",
"g. c #FBBE0F",
"h. c #FBBD0F",
"j. c #EF5F11",
"k. c #F06D11",
"l. c #F17110",
"z. c #F9AE0F",
"x. c #F38110",
"c. c #F48C10",
"v. c #EE5D11",
"b. c #F79F0F",
"n. c #F79E0F",
"m. c #EE5B11",
"M. c #E30713",
"N. c #F58F10",
"B. c #F58E10",
"V. c #EC4911",
"C. c #E51913",
"Z. c #FBBB0F",
"A. c #F38010",
"S. c #F37E10",
"D. c #EA3B12",
"F. c #FCCA0E",
"G. c #FDD00E",
"H. c #E93112",
"J. c #F17310",
"K. c #E82F12",
"L. c #F06711",
"P. c #EF6411",
"I. c #E72512",
"U. c #EC4A11",
"Y. c #E61F12",
"T. c #EE5C11",
"R. c #FBC00F",
"E. c #ED5611",
"W. c #FABA0F",
"Q. c #ED5311",
"!. c #ED5011",
"~. c #EF6611",
"^. c #F06B11",
"/. c #FAB30F",
"(. c #EC4811",
"). c #F9AC0F",
"_. c #EB4312",
"`. c #F8AA0F",
"'. c #F48A10",
"]. c #EB4012",
"[. c #F59210",
"{. c #E61B13",
"}. c #F59410",
"|. c #F59310",
" X c #E82912",
".X c #EA3912",
"XX c #E72912",
"oX c white",
/* pixels */
". . . . . . . . . . . . . . . . . . . . . . . . . . . . . . . . . . . . . . . . . . . . . . . . . . . . . . . . . . . . . . .   ",
". . . . . . . . . . . . . . . . . . . . . . . . . . . . . . . . . . . . . . . . . . . . . . . . . . . . . . . . . . . . . . .   ",
". . . . . . . . . . . . . . . . . . . . . . . . . . . . . . . . . . . . . . . . . . . . . . . . . . . . . . . . . . . . . . .   ",
". . . . . . . . . . . . . . . . . . . . . . . . . . . . . . . . . . . . . . . . . . . . . . . . . . . . . . . . . . . . . . .   ",
". . . . . . . . . . . . . . . . . . . . . . . . . . . . . . . . . . . . . . . . . . . . . . . . . . . . . . . . . . . . . . .   ",
". . . . . . . . . . . . . . . . . . . . . . . . . . . . . . . . . . . . . . . . . . . . . . . . . . . . . . . . . . . . . . .   ",
". . . . . . . . . . . . . . . . . . . . . . . . . . . . . . . . . . . . . . . . . . . . . . . . . . . . . . . . . . . . . . .   ",
". . . . . . . . . . . . . . . . . . . . . . . . . . . . . . . . . . . . . . . . . . . . . . . . . . . . . . . . . . . . . . .   ",
". . . . . . . . . . . . . . . . . . . . . . . . . . . . . . . . . . . . . . . . . . . . . . . . . . . . . . . . . . . . . . .   ",
". . . . . . . . . . . . . . . . . . . . . . . . . . . . . . . . . . . . . . . . . . . . . . . . . . . . . . . . . . . . . . .   ",
". . . . . . . . . . . . . . . . . . . . . . . . . . . . . . . . . . . . . . . . . . . . . . . . . . . . . . . . . . . . . . .   ",
". . . . . . . . . . . . . . . . . . . . . . . . . . . . . . . . . . . . . . . . . . . . . . . . . . . . . . . . . . . . . . .   ",
". . . . . . . . . . . . . . . . . . . . . . . . . . . . . . . . . . . . . . . . . . . . . . . . . . . . . . . . . . . . . . .   ",
". . . . . . . . . . . . . . . . . . . . . . . . . . . . . . . . . . . . . . . . . . . . . . . . . . . . . . . . . . . . . . .   ",
". . . . . . . . . . . . . . . . . . . . . . . . . . . . . . . . . . . . . . . . . . . . . . . . . . . . . . . . . . . . . . .   ",
". . . . . . . . . . . . . . . . . . . . . X o O + . @ . . . . . . . . . . @ . + O o . . . . . . . . . . . . . . . . . . . . .   ",
". . . . . . . . . . . . . . . . . . . . X # $ % & * = X . . . . . . . . X - * & ; : O X . . . . . . . . . . . . . . . . . . .   ",
". . . . . . . . . . . . . . . . . . . X > , < 1 1 2 3 4 . . . . . . . . 4 3 2 1 1 5 6 7 X . . . . . . . . . . . . . . . . . .   ",
". . . . . . . . . . . . . . . . . . . 8 9 0 q w e r t y u @ . . . . @ u y t i p a q s d . . . . . . . . . . . . . . . . . . .   ",
". . . . . . . . . . . . . . . . . . o f g t a h j k l t z x @ . . @ c z t y v j b n t m M o . . . . . . . . . . . . . . . . .   ",
". . . . . . . . . . . . . . . . . X b N t B V o . X p C Z 9 X . . X 9 Z C A X . o S m t D F X . . . . . . . . . . . . . . . .   ",
". . . . . . . . . . . . . . . . . o G H t J K . . @ L P I U Y @ @ Y U I l T @ . . K % t R G o . . . . . . . . . . . . . . . .   ",
". . . . . . . . . . . . . . . . X E W I 0 Q ! . . . ~ ; I C 6 @ @ ^ C I / K . . . ! G ( I & ) X . . . . . . . . . . . . . . .   ",
". . . . . . . . . . . . . . . . o _ g C P ` @ . . . o ' q I ] [ [ ] I Z { o . . . @ Y } C | v o . . . . . . . . . . . . . . .   ",
". . . . . . . . . . . . . . . . @  .I I ..X.X . . . o = o.Z O.+.+.O.Z @.#.o . . . X X.$.I I * . . . . . . . . . . . . . . . .   ",
". . . . . . . . . . . . . . . X b %.I I &.X . . . . X [ *.C I =.=.I C -.;.X . . . . @ :.I C >.,.X . . . . . . . . . . . . . .   ",
". . . . . . . . . . . . . . . o <.@.Z q 1.! . . . . . O J t C 2.2.C t 3.O . . . . . ! 4.q Z 5.u o . . . . . . . . . . . . . .   ",
". . . . . . . . . . . . . . . o 6.Z Z 5 _ o . . . . . o e I q q q q I 7.@ . . . . . o 8.9.Z I 9 @ . . . . . . . . . . . . . .   ",
". . . . . . . . . . . . . . . 8 0.t C q.w.@ . . . . . ! 4.q q q q q q e.! . . . . . @ r.2.C I t.+ . . . . . . . . . . . . . .   ",
". . . . . . . . . . . . . . X y.u.C I z b X . . . . . o i.5.q q q q 5.M o . . . . . X F p.I C i a.@ . . . . . . . . . . . . .   ",
". . . . . . . . . . . . . . @ s.m Z I w K . . . . . . @ L y Z q q Z y L @ . . . . . . ~ a t q | M o . . . . . . . . . . . . .   ",
". . . . . . . . . . . . . . ! : H q t d.X . . . . . . X f.g.C q q C h.f.X . . . . . . X =.t q Z j.! . . . . . . . . . . . . .   ",
". . . . . . . . . . . . . . o k.C q I l.o . . . . . . X ) %.I q q I z.) X . . . . . . o ^ I q t x.X . . . . . . . . . . . . .   ",
". . . . . . . . . . . . . . . c.t q Z v.! . . . . . . . 7 b.I q q I n.K . . . . . . . ! m.Z q I n.7 . . . . . . . . . . . . .   ",
". . . . . . . . . . . . . . X.& I q H : ! . . . . . . . M.N.t q q t B.. . . . . . . . ! V.H q I u.h X . . . . . . . . . . . .   ",
". . . . . . . . . . . . . X C.Z.C q 5.i.o . . . . . . . @ A.t q q t S.@ . . . . . . . o D.| Z C 3 w.@ . . . . . . . . . . . .   ",
". . . . . . . . . . . . . @ ` F.Z Z G.H.o . . . . . . . o J.I q q I 6 o . . . . . . . o K.o.Z Z @.- o . . . . . . . . . . . .   ",
". . . . . . . . . . . . . o 8.5 Z Z l Y @ . . . . . . . o L.C q q C P.! . . . . . . . @ I.P Z q O.+.o . . . . . . . . . . . .   ",
". . . . . . . . . . . . . ! U.H q C i Y.@ . . . . . . . ! T.Z q q q 1.! . . . . . . . X c R.C q q E.! . . . . . . . . . . . .   ",
". . . . . . . . . . . . . ! m.Z q C W.;.X . . . . . . . ! Q.0 q q ( !.! . . . . . . . X [ -.C q C ~.o . . . . . . . . . . . .   ",
". . . . . . . . . . . . . o ^.C q I /.b X . . . . . . . ! : ( q q H (.! . . . . . . . X F p.I q I 9 o . . . . . . . . . . . .   ",
". . . . . . . . . . . . . @ A I q I ).> X . . . . . . . ! f s q q O._.o . . . . . . . X E `.I q t A.@ . . . . . . . . . . . .   ",
". . . . . . . . . . . . . X d.t q I & + . . . . . . . . o u O.q q < k o . . . . . . . . # D I q t '.. . . . . . . . . . . . .   ",
". . . . . . . . . . . . . M.N.t q I t.7 . . . . . . . . o ].s C C O.M o . . . . . . . . 7 b.I q t [.M.. . . . . . . . . . . .   ",
". . . . . . . . . . . . . 8 ; t q t w K . . . . . . . . o V -.g.g.-.S o . . . . . . . . O a t q t J 8 . . . . . . . . . . . .   ",
". . . . . . . . . . . . . O a t Z t a O . . . . . . . . . # {.f.f.{.# . . . . . . . . . O / t Z t a O . . . . . . . . . . . .   ",
". . . . . . . . . . . . . ~ % < 5 < }.O . . . . . . . . . . X X X X . . . . . . . . . . O |.< 5 < % O . . . . . . . . . . . .   ",
". . . . . . . . . . . . . M. X.X8..X XM.. . . . . . . . . . . . . . . . . . . . . . . . M.XX.X8..XXXM.. . . . . . . . . . . .   ",
". . . . . . . . . . . . . . @ o o o @ . . . . . . . . . . . . . . . . . . . . . . . . . . @ o o o @ . . . . . . . . . . . . .   ",
". . . . . . . . . . . . . . . . . . . . . . . . . . . . . . . . . . . . . . . . . . . . . . . . . . . . . . . . . . . . . . .   ",
". . . . . . . . . . . . . . . . . . . . . . . . . . . . . . . . . . . . . . . . . . . . . . . . . . . . . . . . . . . . . . .   ",
". . . . . . . . . . . . . . . . . . . . . . . . . . . . . . . . . . . . . . . . . . . . . . . . . . . . . . . . . . . . . . .   ",
". . . . . . . . . . . . . . . . . . . . . . . . . . . . . . . . . . . . . . . . . . . . . . . . . . . . . . . . . . . . . . .   ",
". . . . . . . . . . . . . . . . . . . . . . . . . . . . . . . . . . . . . . . . . . . . . . . . . . . . . . . . . . . . . . .   ",
". . . . . . . . . . . . . . . . . . . . . . . . . . . . . . . . . . . . . . . . . . . . . . . . . . . . . . . . . . . . . . .   ",
". . . . . . . . . . . . . . . . . . . . . . . . . . . . . . . . . . . . . . . . . . . . . . . . . . . . . . . . . . . . . . .   ",
". . . . . . . . . . . . . . . . . . . . . . . . . . . . . . . . . . . . . . . . . . . . . . . . . . . . . . . . . . . . . . .   ",
". . . . . . . . . . . . . . . . . . . . . . . . . . . . . . . . . . . . . . . . . . . . . . . . . . . . . . . . . . . . . . .   ",
". . . . . . . . . . . . . . . . . . . . . . . . . . . . . . . . . . . . . . . . . . . . . . . . . . . . . . . . . . . . . . .   ",
". . . . . . . . . . . . . . . . . . . . . . . . . . . . . . . . . . . . . . . . . . . . . . . . . . . . . . . . . . . . . . .   ",
". . . . . . . . . . . . . . . . . . . . . . . . . . . . . . . . . . . . . . . . . . . . . . . . . . . . . . . . . . . . . . .   ",
". . . . . . . . . . . . . . . . . . . . . . . . . . . . . . . . . . . . . . . . . . . . . . . . . . . . . . . . . . . . . . .   ",
". . . . . . . . . . . . . . . . . . . . . . . . . . . . . . . . . . . . . . . . . . . . . . . . . . . . . . . . . . . . . . . . ",
"                                                                                                                            .   "
};
